<svg t="1764841400500" class="icon" viewBox="0 0 1536 1024" version="1.1" xmlns="http://www.w3.org/2000/svg" p-id="6089" width="200" height="200"><path d="M778.666667 0c124.138667 0 229.930667 78.528 270.4 188.629333A244.117333 244.117333 0 0 1 1141.333333 170.666667C1276.821333 170.666667 1386.666667 280.512 1386.666667 416c0 5.44-0.170667 10.858667-0.533334 16.213333A266.666667 266.666667 0 0 1 1536 672C1536 819.285333 1416.618667 938.666667 1269.333333 938.666667h-1002.666666C119.381333 938.666667 0 819.285333 0 672c0-97.685333 52.522667-183.104 130.858667-229.546667C148.928 324.778667 250.602667 234.666667 373.333333 234.666667c42.88 0 83.2 11.008 118.272 30.336C503.296 116.693333 627.349333 0 778.666667 0z" fill="#FFCC66" p-id="6090"></path><path d="M234.666667 789.333333l213.333333-298.666666 213.333333 298.666666h-106.666666v234.666667H341.333333V789.333333z" fill="#FFFFFF" p-id="6091"></path><path d="M277.333333 768l170.666667-234.666667 170.666667 234.666667h-85.333334v256h-170.666666V768z" fill="#9B82FF" p-id="6092"></path><path d="M960 320l213.333333 298.666667 213.333334-298.666667h-106.666667V85.333333H1066.666667v234.666667z" fill="#FFFFFF" p-id="6093"></path><path d="M1002.666667 341.333333l170.666666 234.666667 170.666667-234.666667h-85.333333V85.333333h-170.666667v256z" fill="#FF6600" p-id="6094"></path></svg>